 <svg  version="1.0" xmlns="http://www.w3.org/2000/svg"  width="150.000000pt" height="150.000000pt" viewBox="0 0 150.000000 150.000000"  preserveAspectRatio="xMidYMid meet">  <g transform="translate(0.000000,150.000000) scale(0.100000,-0.100000)" fill="#ffffff" stroke="none"> <path d="M695 1349 c-92 -54 -271 -95 -435 -100 -84 -2 -85 -2 -70 16 8 9 8 15 2 15 -6 0 -12 14 -14 31 l-3 32 -47 -61 c-41 -53 -46 -65 -38 -86 9 -24 30 -44 30 -29 0 4 7 16 14 26 13 17 15 17 45 0 l31 -18 0 -95 c0 -52 3 -125 7 -162 l6 -68 -113 0 c-98 0 -111 -2 -106 -16 3 -9 7 -34 7 -57 l2 -42 7 35 c6 30 8 31 9 8 0 -14 4 -33 7 -42 4 -10 1 -16 -9 -16 -17 0 -29 -60 -13 -66 6 -2 64 -3 129 -1 l118 2 10 -38 c52 -194 237 -401 427 -478 l54 -22 82 40 c195 97 319 232 385 421 l27 76 128 -3 128 -3 -7 24 c-4 13 -16 30 -27 39 -25 20 -23 86 3 81 16 -2 37 44 25 56 -3 3 -53 4 -112 3 -106 -2 -106 -2 -100 21 3 13 9 87 12 164 l7 141 30 18 c19 11 32 14 34 8 2 -6 10 -19 18 -29 13 -18 14 -17 28 15 14 34 14 36 -14 70 -16 20 -38 47 -49 61 l-19 25 -1 -27 c0 -15 -5 -30 -10 -33 -8 -5 -8 -11 0 -20 6 -7 7 -15 3 -17 -4 -3 -62 -1 -128 3 -144 9 -250 35 -361 89 -46 22 -84 40 -86 39 -2 0 -25 -13 -53 -30z m131 -48 c4 0 10 -5 15 -12 4 -7 15 -14 23 -15 10 -1 13 2 9 9 -5 8 -2 8 9 0 8 -7 18 -10 21 -6 4 3 7 0 7 -7 0 -7 3 -10 7 -7 3 4 11 3 17 -2 15 -12 208 -51 219 -44 5 3 4 -4 -2 -15 -11 -21 -64 -45 -77 -34 -4 4 -3 1 1 -7 6 -11 4 -13 -9 -8 -9 4 -15 3 -12 -2 3 -5 -19 -34 -50 -66 -39 -39 -62 -55 -77 -53 -26 4 -98 105 -93 131 2 9 1 15 -4 12 -7 -4 -13 8 -42 88 -19 53 -31 57 -24 8 9 -59 66 -180 113 -240 l38 -48 62 46 c35 24 63 52 63 60 0 9 29 32 65 53 36 20 65 34 65 30 0 -4 -8 -34 -18 -67 -15 -49 -22 -61 -42 -63 -12 -2 -51 -25 -86 -52 l-62 -48 62 -45 c33 -25 63 -44 65 -41 2 2 -15 24 -38 49 -22 24 -41 48 -41 51 0 4 3 5 6 2 3 -3 19 7 36 23 17 15 34 27 37 26 3 0 21 7 39 16 l32 18 0 -53 c-1 -69 -14 -137 -30 -151 -7 -7 -10 -7 -7 -2 3 7 -48 9 -147 7 l-152 -4 -19 61 c-19 64 -23 69 -43 49 -9 -9 -16 -8 -31 6 -18 16 -19 15 -36 -49 l-18 -65 -133 0 c-74 0 -134 2 -134 4 0 3 29 26 65 52 36 26 64 49 62 50 -23 22 -131 94 -141 94 -7 0 -18 6 -23 13 -10 12 -43 103 -43 118 0 15 129 -66 130 -81 0 -9 28 -37 62 -62 l62 -46 33 42 c47 58 100 166 113 233 7 32 17 61 23 65 6 3 23 0 39 -8 15 -8 31 -14 34 -13z m-116 -1 c-12 -8 -12 -10 -1 -10 11 0 11 -4 -1 -22 -7 -13 -22 -49 -32 -80 -11 -32 -22 -55 -26 -53 -5 3 -11 -7 -14 -20 -4 -14 -11 -23 -17 -20 -5 4 -8 3 -7 -2 1 -4 -1 -18 -5 -29 -10 -29 -41 -36 -56 -13 -6 11 -20 19 -32 19 -11 0 -18 4 -14 9 3 5 -4 16 -15 24 -11 7 -17 17 -13 20 3 4 1 7 -6 7 -7 0 -9 4 -6 10 3 5 0 7 -8 4 -8 -3 -28 6 -45 20 -16 15 -34 26 -40 26 -5 0 -15 7 -22 15 -11 13 -8 15 15 15 55 0 200 32 208 46 6 10 13 12 27 4 13 -7 21 -7 26 2 5 7 3 8 -6 3 -8 -5 -11 -4 -7 3 4 5 16 8 27 5 12 -3 20 0 20 6 0 7 4 10 9 6 5 -3 12 -1 16 5 3 5 14 10 23 10 15 0 15 -2 2 -10z m-396 -242 c4 -84 9 -168 13 -186 5 -31 4 -33 -18 -30 -22 3 -25 9 -30 68 -4 36 -7 118 -8 183 -1 108 0 117 18 117 16 0 19 -13 25 -152z m915 40 c-1 -62 -4 -144 -8 -183 -5 -64 -8 -70 -30 -73 -22 -4 -23 -2 -17 40 4 32 16 262 16 322 0 3 9 6 20 6 19 0 20 -6 19 -112z m-840 -95 c18 -12 22 -13 16 -2 -5 8 2 5 15 -6 41 -34 46 -40 47 -50 1 -16 -36 -37 -50 -29 -9 6 -9 5 0 -7 11 -13 9 -20 -11 -38 -22 -20 -25 -21 -40 -6 -12 12 -16 35 -16 86 0 38 3 69 8 69 4 0 18 -8 31 -17z m391 -113 c4 0 7 -10 6 -23 0 -14 -7 -23 -18 -23 -10 0 -18 4 -18 8 0 4 -5 8 -11 8 -5 0 -7 -4 -4 -10 3 -5 0 -7 -8 -4 -12 4 -13 11 -4 34 12 31 40 45 45 23 2 -7 7 -13 12 -13z m300 -70 c0 -6 -6 -13 -14 -16 -8 -3 -11 -14 -9 -28 6 -30 -11 -41 -28 -19 -10 12 -10 14 -1 9 12 -7 15 0 15 36 0 10 5 14 15 10 10 -3 13 -1 8 6 -4 7 -2 12 3 12 6 0 11 -5 11 -10z m-917 -31 c22 -27 22 -41 -4 -73 -15 -19 -30 -26 -55 -26 l-34 0 0 58 c0 32 3 62 7 66 13 13 67 -3 86 -25z m135 14 c2 -9 -8 -13 -32 -13 -20 0 -36 -4 -36 -10 0 -5 14 -10 30 -10 20 0 30 -5 30 -15 0 -10 -10 -15 -30 -15 -16 0 -30 -4 -30 -10 0 -5 16 -10 35 -10 25 0 35 -4 35 -16 0 -12 -10 -14 -47 -12 -27 2 -47 6 -45 11 1 4 2 31 2 60 l0 54 42 -1 c23 -1 43 -6 46 -13z m130 0 c2 -9 -8 -13 -32 -13 -20 0 -36 -4 -36 -10 0 -5 14 -10 30 -10 20 0 30 -5 30 -15 0 -10 -10 -15 -30 -15 -25 0 -30 -4 -30 -25 0 -16 -6 -25 -15 -25 -12 0 -15 13 -15 58 0 32 3 62 7 66 12 11 86 2 91 -11z m120 -1 c2 -8 -8 -12 -32 -12 -20 0 -36 -4 -36 -10 0 -5 14 -10 30 -10 20 0 30 -5 30 -15 0 -10 -10 -15 -30 -15 -16 0 -30 -4 -30 -10 0 -5 16 -10 35 -10 24 0 35 -5 35 -15 0 -11 -12 -15 -45 -15 l-45 0 0 63 0 62 42 0 c24 0 43 -6 46 -13z m80 -19 l22 -38 0 38 c0 26 4 37 15 37 12 0 15 -14 15 -65 0 -75 -17 -87 -47 -32 l-18 32 -3 -32 c-2 -21 -9 -33 -18 -33 -10 0 -14 14 -14 58 0 84 14 94 48 35z m179 16 c7 -6 13 -26 13 -45 0 -38 -29 -64 -72 -64 -27 0 -28 1 -28 58 0 32 3 62 7 66 10 10 62 -1 80 -15z m83 -44 c0 -51 -3 -65 -15 -65 -12 0 -15 14 -15 65 0 51 3 65 15 65 12 0 15 -14 15 -65z m124 59 c24 -9 7 -35 -18 -28 -26 6 -49 -16 -44 -43 2 -13 12 -18 33 -18 17 0 33 -4 37 -10 22 -30 -52 -35 -82 -5 -27 27 -25 56 5 85 24 25 41 30 69 19z m144 -53 c26 -69 26 -71 8 -71 -8 0 -18 9 -21 20 -3 11 -13 20 -22 20 -8 0 -17 -9 -20 -20 -3 -11 -13 -20 -23 -20 -17 0 -16 5 8 65 14 36 30 65 36 65 6 0 21 -27 34 -59z m146 43 c4 -10 -3 -14 -21 -14 -25 0 -25 -2 -21 -50 5 -44 3 -50 -14 -50 -17 0 -19 6 -16 48 3 42 1 47 -19 50 -22 3 -29 13 -18 23 2 3 27 6 54 6 34 0 51 -4 55 -13z m126 -1 c0 -8 -12 -13 -30 -13 -16 0 -30 -4 -30 -10 0 -5 14 -10 31 -10 20 0 29 -4 26 -12 -2 -7 -16 -13 -30 -13 -16 1 -27 -5 -27 -12 0 -8 12 -13 30 -13 20 0 30 -5 30 -15 0 -11 -12 -15 -45 -15 l-45 0 0 63 0 64 45 0 c31 0 45 -5 45 -14z m-539 -131 c21 2 34 -2 37 -11 3 -8 0 -11 -7 -7 -6 4 -9 2 -6 -6 6 -14 -46 -50 -66 -46 -6 2 -23 14 -38 28 l-26 25 25 17 c17 12 28 14 36 7 7 -6 27 -9 45 -7z m-212 -5 c9 10 17 11 23 5 13 -13 2 -32 -18 -32 -12 0 -18 -12 -15 -32 0 -4 -12 -2 -28 3 -34 12 -46 35 -30 55 10 12 15 12 33 1 18 -12 23 -12 35 0z m-105 -45 c22 -22 52 -45 65 -52 22 -12 27 -10 40 11 52 78 88 78 144 -1 14 -21 19 -22 39 -11 13 6 46 32 73 56 46 41 55 45 103 45 28 0 52 -4 52 -9 0 -6 -33 -43 -72 -83 -51 -51 -86 -78 -114 -87 -38 -12 -42 -17 -53 -64 -6 -28 -14 -84 -18 -124 -6 -70 -8 -75 -44 -104 l-38 -30 -34 27 c-32 25 -35 31 -51 143 -10 64 -20 121 -24 127 -4 5 -33 22 -64 38 -39 18 -75 47 -113 90 -30 35 -55 66 -55 70 0 3 27 4 61 2 55 -4 65 -8 103 -44z m602 17 c-7 -36 -69 -161 -98 -199 -56 -72 -198 -200 -222 -200 -3 0 -6 8 -6 19 0 11 23 37 57 62 31 24 79 71 106 104 50 59 117 184 117 217 0 9 10 18 23 21 12 2 24 5 26 6 2 0 1 -13 -3 -30z m-796 -36 c47 -115 138 -233 228 -295 25 -17 42 -37 42 -48 0 -11 -2 -20 -5 -20 -8 0 -104 72 -141 107 -70 63 -161 208 -180 286 -5 22 -3 27 13 27 14 0 26 -16 43 -57z m696 -32 c-12 -22 -21 -29 -34 -24 -14 5 -13 3 3 -10 14 -12 16 -16 6 -17 -8 0 -11 -3 -8 -6 4 -4 -12 -30 -35 -58 -67 -81 -86 -98 -99 -90 -7 4 -10 3 -7 -2 3 -5 0 -15 -8 -22 -8 -7 -14 -9 -14 -5 0 4 -5 1 -11 -7 -7 -11 -8 0 -3 35 10 76 19 91 66 113 24 12 68 46 98 75 30 30 56 53 58 51 2 -1 -4 -16 -12 -33z m-614 -26 c3 3 13 -5 24 -17 19 -22 19 -23 -1 -8 -18 14 -19 14 -6 -2 7 -10 17 -15 23 -12 5 3 17 -3 27 -14 9 -12 30 -24 45 -28 29 -7 62 -63 52 -89 -2 -7 0 -17 6 -23 6 -6 6 -12 -3 -17 -7 -5 -10 -4 -5 3 4 6 -3 12 -16 14 -14 2 -22 9 -20 18 2 8 0 12 -4 7 -10 -10 -54 32 -54 51 0 9 -3 12 -6 9 -9 -9 -53 43 -60 71 -4 12 -10 22 -14 22 -4 0 -10 10 -13 23 -5 20 -5 20 7 5 7 -10 15 -15 18 -13z"/> <path d="M746 1123 c-7 -67 0 -161 11 -149 9 9 12 120 4 171 l-7 50 -8 -72z"/> <path d="M100 756 c0 -39 18 -48 41 -20 15 18 2 47 -25 52 -12 3 -16 -4 -16 -32z"/> <path d="M744 755 c1 -30 4 -35 21 -33 29 4 29 62 -1 66 -18 3 -20 -2 -20 -33z"/> <path d="M750 410 c0 -136 3 -199 10 -195 13 8 12 382 -1 390 -5 4 -9 -75 -9 -195z"/> <path d="M1320 978 c0 -20 63 -104 68 -90 2 6 -13 32 -32 58 -20 26 -36 40 -36 32z"/> <path d="M151 939 c-33 -45 -41 -70 -16 -49 21 17 58 80 52 86 -3 3 -19 -13 -36 -37z"/> <path d="M170 617 c0 -13 23 -74 37 -96 1 -1 6 0 12 3 11 7 -12 72 -35 96 -12 12 -14 12 -14 -3z"/> <path d="M1322 618 c-16 -20 -45 -98 -39 -104 12 -12 26 8 42 57 17 51 16 70 -3 47z"/> </g> </svg> 